<?xml version="1.0" encoding="UTF-8"?>
<svg version="1.1" xmlns="http://www.w3.org/2000/svg" width="414" height="375">
<path d="M0 0 C13.69400974 10.93082677 23.5372029 25.84985029 26.6015625 43.30078125 C28.86336107 64.30002873 24.82688325 83.07096675 11.6875 99.9375 C-0.70455438 114.01554817 -17.11967257 123.71241446 -36.03564453 125.15527344 C-54.96924545 126.20834892 -73.26413104 121.40073344 -87.92578125 108.9453125 C-88.61027344 108.30335938 -89.29476563 107.66140625 -90 107 C-91.22783203 105.85144531 -91.22783203 105.85144531 -92.48046875 104.6796875 C-105.57635404 91.40549212 -112.27608816 73.54094968 -112.5 55 C-112.27294054 36.21260349 -105.3228661 19.02024568 -91.984375 5.72265625 C-66.3335418 -18.38674242 -28.62485967 -20.2111629 0 0 Z M-27.62890625 32.78515625 C-32.5987502 39.45409215 -32.84861533 45.93338686 -32 54 C-29.65232229 60.21501401 -25.30614356 64.46225881 -19.3125 67.25 C-12.31416402 68.8345289 -6.08439475 68.90144154 0.25 65.26171875 C5.30312206 61.61850798 8.09021954 56.82985614 10 51 C10.55432526 45.17958481 10.1287243 40.05859163 7 35 C2.73944109 30.43794902 -1.18022738 26.4014776 -7.6015625 25.7265625 C-15.74698511 25.45294365 -21.95583368 26.56790406 -27.62890625 32.78515625 Z M-93.47265625 45.59375 C-97.80226573 51.67692891 -97.66043352 58.82014412 -97 66 C-95.28546169 71.62905649 -90.86155009 75.89098426 -86 79 C-79.96740058 81.63548431 -74.02533954 81.44135534 -67.89453125 79.24609375 C-61.48222782 76.37078321 -57.65684139 72.22141187 -55.125 65.625 C-53.43310793 59.90525123 -54.05950523 55.56023576 -56.125 49.9375 C-59.64989132 44.41517027 -63.63920222 40.00369856 -70 38 C-79.29105232 36.63328226 -86.97331274 38.55997772 -93.47265625 45.59375 Z M-57.7734375 72.12109375 C-61.483027 77.8036178 -61.74092771 83.39648179 -61 90 C-59.06193416 96.52996046 -55.15848489 100.69670125 -49.1875 104.00390625 C-43.75983571 106.4441666 -38.7302118 106.49167418 -33 105 C-27.08310561 102.35671385 -22.67405708 98.63422573 -19.92578125 92.66796875 C-17.69785506 86.24740508 -18.26191052 79.7926157 -21 73.625 C-24.25082049 67.78281117 -28.78479286 65.07173571 -35 63 C-44.92647517 61.92448493 -51.41765542 64.46930024 -57.7734375 72.12109375 Z " fill="#6BB24E" transform="translate(360,224)"/>
<path d="M0 0 C0.34691024 3.72607293 0.52294448 7.28547687 0 11 C-2.6875 13.3125 -2.6875 13.3125 -6 15 C-10.59092934 19.51805745 -12.15842439 23.35991686 -12.3125 29.75 C-12.22758139 35.17172687 -11.89751551 39.05160309 -8 43 C4.07759866 52.70049674 20.63766122 54.96777881 35.39379883 57.68164062 C47.90575557 60.07950533 61.00484658 63.84510187 68.88671875 74.56640625 C73 81.15340909 73 81.15340909 73 85 C73.59167969 84.97679687 74.18335938 84.95359375 74.79296875 84.9296875 C79.30628008 84.82661024 82.93197835 84.7810791 87 87 C89.77042109 89.77042109 89.39796106 91.76533805 89.625 95.625 C89.73714844 97.40777344 89.73714844 97.40777344 89.8515625 99.2265625 C89.90054688 100.14179688 89.94953125 101.05703125 90 102 C91.75074829 101.99333817 91.75074829 101.99333817 93.53686523 101.98654175 C104.59840998 101.94579497 115.65993927 101.91591999 126.72154236 101.89637566 C132.4068416 101.8859896 138.09207969 101.87192625 143.77734375 101.84912109 C149.27573233 101.82720647 154.77406253 101.81539256 160.27249146 101.81024551 C162.3581738 101.80658289 164.44385338 101.79943195 166.5295105 101.78853989 C194.47655562 101.64854776 220.11901597 105.09516514 242 124 C242.73476563 124.59167969 243.46953125 125.18335938 244.2265625 125.79296875 C263.2091071 141.61175591 272.72502409 164.98626253 275.21582031 189.08837891 C276.93456986 213.5403733 267.67362274 237.58040792 252 256 C251.46890625 256.67675781 250.9378125 257.35351562 250.390625 258.05078125 C236.5691214 275.12239089 214.34227444 284.99234941 193 288 C175.31723306 289.42560192 152.74082241 288.46733102 138.26690674 276.79614258 C126.98584256 267.87073463 115.35510831 268.71881043 101.484375 268.875 C99.01727005 268.87401465 96.55016469 268.87005676 94.08306885 268.86328125 C88.93535551 268.8590575 83.78906218 268.88608167 78.64160156 268.93652344 C72.06193635 268.99912283 65.484715 268.99017757 58.90490341 268.95877075 C53.81906723 268.94120728 48.73379325 268.95800427 43.64801788 268.9854126 C41.22247456 268.9950703 38.79687135 268.99500494 36.37133026 268.98480225 C32.97773457 268.97639074 29.58752627 269.01347634 26.19433594 269.0625 C25.20500061 269.05147247 24.21566528 269.04044495 23.1963501 269.02908325 C16.4282739 269.19272836 12.53965602 271.06302305 7.23340225 275.24536133 C-8.88858726 287.91135834 -33.90558831 289.82690909 -53.50830078 287.73193359 C-77.2720965 284.2251493 -98.96146953 270.50559426 -113.71875 251.82421875 C-128.95220301 231.2244357 -135.983542 206.17223552 -132.17797852 180.67871094 C-128.20442794 156.99135933 -115.99819594 135.85036223 -96.9453125 121.05859375 C-78.57126229 108.21625362 -58.63241498 101.79459326 -36.1875 101.88647461 C-34.76660316 101.88625557 -34.76660316 101.88625557 -33.31700134 101.8860321 C-30.21131027 101.88672425 -27.10568049 101.89448374 -24 101.90234375 C-21.83667026 101.90421041 -19.67334009 101.90563314 -17.51000977 101.90663147 C-11.83505065 101.91043709 -6.1601174 101.92025059 -0.48516846 101.93133545 C5.31326955 101.9415917 11.11171177 101.9461381 16.91015625 101.95117188 C28.27344882 101.9618747 39.63672225 101.97892752 51 102 C50.97715942 100.86328857 50.97715942 100.86328857 50.95385742 99.70361328 C50.94201416 98.71087402 50.9301709 97.71813477 50.91796875 96.6953125 C50.89512817 95.21828857 50.89512817 95.21828857 50.87182617 93.71142578 C51.0294759 90.37645829 51.76302146 88.48553171 54 86 C57.47325181 84.8422494 60.36067448 84.93133348 64 85 C61.02851034 78.19321554 57.02146544 75.30172452 50.33203125 72.30078125 C41.77399093 68.95983468 33.09517541 66.99196731 24.11425781 65.19775391 C6.682866 61.7120114 -7.9292275 57.9074688 -19 43 C-22.92589223 36.41463238 -23.1990012 28.95587163 -21.4140625 21.578125 C-18.65159502 14.43119078 -8.77620811 0 0 0 Z M59 93 C59 95.97 59 98.94 59 102 C61.50100574 103.25050287 63.00343052 103.02993449 65.7890625 102.87890625 C66.73007813 102.83056641 67.67109375 102.78222656 68.640625 102.73242188 C69.62546875 102.67634766 70.6103125 102.62027344 71.625 102.5625 C72.61757812 102.51029297 73.61015625 102.45808594 74.6328125 102.40429688 C77.08884568 102.27441051 79.5444936 102.13943836 82 102 C82.020625 100.700625 82.04125 99.40125 82.0625 98.0625 C82.07410156 97.33160156 82.08570313 96.60070312 82.09765625 95.84765625 C82.20561184 93.98267859 82.20561184 93.98267859 81 93 C79.36527118 92.91299658 77.72685945 92.89298937 76.08984375 92.90234375 C74.60581055 92.90717773 74.60581055 92.90717773 73.09179688 92.91210938 C71.53041992 92.92467773 71.53041992 92.92467773 69.9375 92.9375 C68.37032227 92.94426758 68.37032227 92.94426758 66.77148438 92.95117188 C64.1809334 92.96300087 61.59049441 92.97948311 59 93 Z M-72.875 116.25 C-73.92276611 116.70342773 -73.92276611 116.70342773 -74.99169922 117.16601562 C-84.32481616 121.32363193 -92.09408066 126.45633085 -99 134 C-99.845625 134.825 -100.69125 135.65 -101.5625 136.5 C-117.49714574 152.8432264 -125.42608472 174.08928868 -125.36791992 196.75952148 C-124.96644648 218.57418016 -115.78434118 240.73001617 -100 256 C-79.87317496 274.54566693 -56.89103402 281.17160417 -29.97070312 280.19970703 C-13.89549716 279.11904312 0.85320479 270.76453014 14 262 C16.11321068 261.73155785 16.11321068 261.73155785 18.60116577 261.70565796 C19.54571625 261.69134735 20.49026672 261.67703674 21.46343994 261.66229248 C22.49821472 261.65691467 23.5329895 261.65153687 24.59912109 261.64599609 C25.69058441 261.6328537 26.78204773 261.6197113 27.90658569 261.60617065 C31.52887239 261.56666542 35.15099264 261.5433642 38.7734375 261.5234375 C40.01217243 261.51528645 41.25090736 261.50713539 42.52717972 261.49873734 C48.41382791 261.46129422 54.30042341 261.43217632 60.1871618 261.4155134 C66.9556569 261.39603393 73.72283233 261.34357819 80.4908632 261.26251161 C86.37215562 261.19451719 92.25301284 261.17119047 98.13466263 261.16310501 C100.62482235 261.15340081 103.11496942 261.13025123 105.60486984 261.09302902 C119.85825906 260.89329472 129.66942943 260.9204479 141 270 C159.78496855 280.27988673 181.88621071 283.58504401 202.8125 278.3125 C209.17863096 276.43353875 215.13503576 274.10191442 221 271 C221.96292969 270.50886719 222.92585938 270.01773438 223.91796875 269.51171875 C243.045183 259.14392733 256.66662922 241.73539807 263.28125 221.1484375 C270.33531106 197.21501605 267.95625513 173.83176104 256.11181641 151.92773438 C245.10609323 132.84534742 227.3447428 119.56487777 206.4375 113.25 C205.74108398 113.03891602 205.04466797 112.82783203 204.32714844 112.61035156 C195.99201412 110.22832585 187.70072643 109.85106691 179.07263184 109.85955811 C178.11321827 109.85658698 177.15380471 109.85361586 176.16531801 109.8505547 C172.97153111 109.84192875 169.77778197 109.84036465 166.58398438 109.83886719 C164.28514527 109.83423464 161.98630694 109.82920939 159.68746948 109.82382202 C153.45565506 109.81073697 147.22385138 109.80426052 140.99202538 109.79981136 C137.09238416 109.79687397 133.19274583 109.79276789 129.29310608 109.78830719 C118.47203429 109.77620524 107.65096571 109.76582123 96.82988739 109.7624321 C95.79299197 109.76210275 95.79299197 109.76210275 94.73514917 109.76176675 C94.04233716 109.76154847 93.34952514 109.76133019 92.63571882 109.7611053 C91.23208078 109.76066185 89.82844273 109.76021529 88.42480469 109.75976562 C87.38045024 109.75943348 87.38045024 109.75943348 86.31499773 109.75909463 C75.04940241 109.75515189 63.78387196 109.73771071 52.51830167 109.7144061 C40.92061371 109.6906104 29.32296141 109.67848375 17.72524881 109.67706418 C11.22631487 109.67601978 4.72747253 109.67018993 -1.7714386 109.65224457 C-7.89136381 109.63567373 -14.01112943 109.6336519 -20.13106918 109.64238358 C-22.36539515 109.64314918 -24.59973002 109.63887491 -26.83403397 109.62892532 C-42.42818937 109.56360817 -58.38484285 109.72027721 -72.875 116.25 Z " fill="#70AE56" transform="translate(135,84)"/>
<path d="M0 0 C0.83273438 0.4125 1.66546875 0.825 2.5234375 1.25 C15.02368551 8.01936508 23.27174844 18.46784677 27.61572266 31.90454102 C31.74094425 46.81668444 29.06314734 61.90785236 21.75 75.3125 C14.76283159 86.53923994 4.09676572 95.21994234 -8.921875 98.55859375 C-24.9965949 100.8637249 -39.70253358 99.27508149 -53.1171875 89.44921875 C-53.73851563 88.97097656 -54.35984375 88.49273437 -55 88 C-56.03125 87.278125 -57.0625 86.55625 -58.125 85.8125 C-67.68454117 77.47107211 -73.11955977 63.04040497 -74.203125 50.68359375 C-74.49739354 36.58322637 -69.91933934 23.41206298 -60.75 12.6875 C-45.50287279 -3.14312792 -20.46512644 -10.95123823 0 0 Z M-40 11 C-40.67832567 13.19929042 -40.67832567 13.19929042 -40.48828125 15.546875 C-40.47216797 16.39121094 -40.45605469 17.23554688 -40.43945312 18.10546875 C-40.39755859 18.97816406 -40.35566406 19.85085937 -40.3125 20.75 C-40.28994141 21.63816406 -40.26738281 22.52632812 -40.24414062 23.44140625 C-40.18532552 25.62932812 -40.10321268 27.81379671 -40 30 C-40.88522339 29.97643433 -40.88522339 29.97643433 -41.78833008 29.95239258 C-44.46295586 29.89002061 -47.13742864 29.85100343 -49.8125 29.8125 C-51.2056543 29.77479492 -51.2056543 29.77479492 -52.62695312 29.73632812 C-53.51962891 29.72666016 -54.41230469 29.71699219 -55.33203125 29.70703125 C-56.56530151 29.68346558 -56.56530151 29.68346558 -57.82348633 29.65942383 C-60.06088191 29.84005352 -60.06088191 29.84005352 -61.75756836 31.27807617 C-63.92487933 34.28181841 -63.63228569 37.91665953 -63.75 41.5 C-63.79858154 42.70970459 -63.79858154 42.70970459 -63.84814453 43.94384766 C-64.86215676 54.79210805 -64.86215676 54.79210805 -61.02734375 64.2734375 C-56.83166378 66.66632853 -53.4223481 66.44432684 -48.6875 66.25 C-47.85154297 66.23195313 -47.01558594 66.21390625 -46.15429688 66.1953125 C-44.10236772 66.14841126 -42.05103244 66.07667411 -40 66 C-40.02618408 66.55461914 -40.05236816 67.10923828 -40.0793457 67.68066406 C-40.18354003 70.20348569 -40.24838891 72.72585489 -40.3125 75.25 C-40.35439453 76.12269531 -40.39628906 76.99539063 -40.43945312 77.89453125 C-40.51518364 81.86281012 -40.51325238 84.23761838 -38.26171875 87.58203125 C-33.09283536 89.82910271 -28.0698873 89.53616657 -22.5 89.4375 C-21.37207031 89.44458984 -20.24414062 89.45167969 -19.08203125 89.45898438 C-11.56857518 89.41732762 -11.56857518 89.41732762 -5 86 C-3.8517315 83.703463 -3.88438825 82.41686833 -3.90234375 79.8671875 C-3.90556641 79.06152344 -3.90878906 78.25585938 -3.91210938 77.42578125 C-3.92048828 76.58402344 -3.92886719 75.74226563 -3.9375 74.875 C-3.94201172 74.02550781 -3.94652344 73.17601562 -3.95117188 72.30078125 C-3.96297126 70.20049091 -3.98090694 68.1002367 -4 66 C-2.83082031 66.03480469 -1.66164062 66.06960938 -0.45703125 66.10546875 C1.09113141 66.13361716 2.63930968 66.16091619 4.1875 66.1875 C4.95642578 66.21263672 5.72535156 66.23777344 6.51757812 66.26367188 C11.15647198 66.32340012 14.27805342 66.10041764 18 63 C19.66637622 58.00087135 19.1845647 52.79613749 19.1875 47.5625 C19.19974609 46.41716797 19.21199219 45.27183594 19.22460938 44.09179688 C19.22654297 42.99029297 19.22847656 41.88878906 19.23046875 40.75390625 C19.23457764 39.74658447 19.23868652 38.7392627 19.24291992 37.70141602 C18.99418437 34.93532674 18.50890838 33.31361529 17 31 C14.65147472 29.82573736 13.26225935 29.88491827 10.6484375 29.90234375 C9.79765625 29.90556641 8.946875 29.90878906 8.0703125 29.91210938 C7.18085937 29.92048828 6.29140625 29.92886719 5.375 29.9375 C4.4778125 29.94201172 3.580625 29.94652344 2.65625 29.95117188 C0.43743352 29.96297409 -1.78125018 29.97943845 -4 30 C-3.97381592 29.44538086 -3.94763184 28.89076172 -3.9206543 28.31933594 C-3.81645997 25.79651431 -3.75161109 23.27414511 -3.6875 20.75 C-3.6246582 19.44095703 -3.6246582 19.44095703 -3.56054688 18.10546875 C-3.54443359 17.26113281 -3.52832031 16.41679687 -3.51171875 15.546875 C-3.48553467 14.77182617 -3.45935059 13.99677734 -3.43237305 13.19824219 C-4.30604909 9.81476729 -6.08173628 8.79439029 -9 7 C-11.90073302 6.39227035 -11.90073302 6.39227035 -15 6.46875 C-16.134375 6.46359375 -17.26875 6.4584375 -18.4375 6.453125 C-20.2009375 6.47632813 -20.2009375 6.47632813 -22 6.5 C-23.175625 6.48453125 -24.35125 6.4690625 -25.5625 6.453125 C-26.696875 6.45828125 -27.83125 6.4634375 -29 6.46875 C-30.03125 6.47326172 -31.0625 6.47777344 -32.125 6.48242188 C-35.77276889 7.1391194 -37.44926994 8.33630863 -40 11 Z " fill="#6EB051" transform="translate(114,232)"/>
<path d="M0 0 C21.7490625 -0.7734375 21.7490625 -0.7734375 43.9375 -1.5625 C48.46073975 -1.7901001 52.98397949 -2.0177002 57.64428711 -2.25219727 C91.71270147 -3.30560807 91.71270147 -3.30560807 104.75131607 7.86104202 C115.95907529 18.51647718 117.92304862 31.14112493 118.39215088 46.10404968 C118.54820981 56.28196345 118.02637947 66.38588748 117.5625 76.5625 C117.046875 92.546875 116.53125 108.53125 116 125 C77.72 125 39.44 125 0 125 C0 83.75 0 42.5 0 0 Z M7 6 C7 42.63 7 79.26 7 117 C40.66 117 74.32 117 109 117 C109 88.62 109 60.24 109 31 C100.75 31 92.5 31 84 31 C84 22.75 84 14.5 84 6 C58.59 6 33.18 6 7 6 Z M91 12 C91 15.96 91 19.92 91 24 C94.63 24 98.26 24 102 24 C100.18106339 20.36212678 98.77189265 18.52780768 95.9375 15.75 C95.22464844 15.04359375 94.51179688 14.3371875 93.77734375 13.609375 C92.27607496 11.88813135 92.27607496 11.88813135 91 12 Z " fill="#6DA953" transform="translate(147,0)"/>
<path d="M0 0 C1.58748047 -0.02416992 1.58748047 -0.02416992 3.20703125 -0.04882812 C4.22152344 -0.04947266 5.23601562 -0.05011719 6.28125 -0.05078125 C7.21001953 -0.05376221 8.13878906 -0.05674316 9.09570312 -0.05981445 C11.5 0.3125 11.5 0.3125 13.30786133 1.54345703 C14.85140456 3.83395759 14.8454889 5.23191402 14.79296875 7.98046875 C14.7784668 9.31948242 14.7784668 9.31948242 14.76367188 10.68554688 C14.73853516 11.61431641 14.71339844 12.54308594 14.6875 13.5 C14.66719727 14.91055664 14.66719727 14.91055664 14.64648438 16.34960938 C14.61113096 18.67115038 14.56178674 20.99153653 14.5 23.3125 C15.05985596 23.30202637 15.61971191 23.29155273 16.1965332 23.28076172 C18.73514307 23.23916674 21.2736812 23.21316315 23.8125 23.1875 C24.69357422 23.17074219 25.57464844 23.15398437 26.48242188 23.13671875 C27.75375977 23.12705078 27.75375977 23.12705078 29.05078125 23.1171875 C29.83106689 23.10671387 30.61135254 23.09624023 31.4152832 23.08544922 C33.5 23.3125 33.5 23.3125 36.5 25.3125 C36.85644531 27.80273438 36.85644531 27.80273438 36.828125 30.90625 C36.82296875 32.01871094 36.8178125 33.13117188 36.8125 34.27734375 C36.791875 35.44394531 36.77125 36.61054688 36.75 37.8125 C36.74484375 38.97910156 36.7396875 40.14570313 36.734375 41.34765625 C36.65412854 50.00424292 36.65412854 50.00424292 35.5 52.3125 C25.6 52.8075 25.6 52.8075 15.5 53.3125 C14.70155433 56.50628267 14.40915237 58.40554493 14.5 61.5625 C14.55046108 65.91657019 14.19115315 70.01199152 13.5 74.3125 C11.72550406 76.08699594 9.14982739 75.44280072 6.75 75.4453125 C5.5846875 75.44660156 4.419375 75.44789063 3.21875 75.44921875 C1.9915625 75.44535156 0.764375 75.44148438 -0.5 75.4375 C-2.34078125 75.44330078 -2.34078125 75.44330078 -4.21875 75.44921875 C-5.3840625 75.44792969 -6.549375 75.44664062 -7.75 75.4453125 C-8.82765625 75.44418457 -9.9053125 75.44305664 -11.015625 75.44189453 C-13.5 75.3125 -13.5 75.3125 -14.5 74.3125 C-14.65714654 72.67993242 -14.75085414 71.04114662 -14.81640625 69.40234375 C-14.85830078 68.41298828 -14.90019531 67.42363281 -14.94335938 66.40429688 C-14.98267578 65.36337891 -15.02199219 64.32246094 -15.0625 63.25 C-15.10568359 62.20521484 -15.14886719 61.16042969 -15.19335938 60.08398438 C-15.29981225 57.49363116 -15.4018276 54.90317814 -15.5 52.3125 C-16.43851807 52.32821045 -16.43851807 52.32821045 -17.39599609 52.34423828 C-20.2222901 52.38573191 -23.04852011 52.41180473 -25.875 52.4375 C-26.85984375 52.45425781 -27.8446875 52.47101563 -28.859375 52.48828125 C-29.80039062 52.49472656 -30.74140625 52.50117188 -31.7109375 52.5078125 C-33.01490479 52.52352295 -33.01490479 52.52352295 -34.34521484 52.53955078 C-36.5 52.3125 -36.5 52.3125 -38.5 50.3125 C-38.95756227 46.16393538 -38.82402177 41.98337925 -38.8125 37.8125 C-38.82861328 36.64589844 -38.84472656 35.47929687 -38.86132812 34.27734375 C-38.86197266 33.16488281 -38.86261719 32.05242187 -38.86328125 30.90625 C-38.86626221 29.88208984 -38.86924316 28.85792969 -38.87231445 27.80273438 C-38.74945068 26.98095703 -38.62658691 26.15917969 -38.5 25.3125 C-35.29593538 23.17645692 -34.50399253 23.07041092 -30.83203125 23.1171875 C-29.93935547 23.12363281 -29.04667969 23.13007813 -28.12695312 23.13671875 C-26.73379883 23.16185547 -26.73379883 23.16185547 -25.3125 23.1875 C-24.37212891 23.19652344 -23.43175781 23.20554687 -22.46289062 23.21484375 C-20.14167032 23.23840944 -17.82096356 23.27130884 -15.5 23.3125 C-15.51160156 22.466875 -15.52320312 21.62125 -15.53515625 20.75 C-15.6381952 7.79653144 -15.6381952 7.79653144 -14.5 2.3125 C-9.92734569 -0.73593621 -5.37785396 -0.01637593 0 0 Z M-9.5 6.3125 C-9.83 13.2425 -10.16 20.1725 -10.5 27.3125 C-13.22501908 28.22083969 -15.12233971 28.49609985 -17.94921875 28.62890625 C-18.79677734 28.67080078 -19.64433594 28.71269531 -20.51757812 28.75585938 C-21.39865234 28.79517578 -22.27972656 28.83449219 -23.1875 28.875 C-24.08017578 28.91818359 -24.97285156 28.96136719 -25.89257812 29.00585938 C-28.09487344 29.1118522 -30.29741662 29.21267221 -32.5 29.3125 C-32.5 35.2525 -32.5 41.1925 -32.5 47.3125 C-25.24 47.3125 -17.98 47.3125 -10.5 47.3125 C-10.17 54.5725 -9.84 61.8325 -9.5 69.3125 C-3.56 69.3125 2.38 69.3125 8.5 69.3125 C8.83 62.0525 9.16 54.7925 9.5 47.3125 C19.9375 47.375 19.9375 47.375 23.23217773 47.40258789 C24.08239502 47.40508545 24.9326123 47.40758301 25.80859375 47.41015625 C27.12041626 47.41801147 27.12041626 47.41801147 28.45874023 47.42602539 C30.49440206 47.54034809 30.49440206 47.54034809 31.5 46.3125 C31.57325168 43.44982433 31.59238205 40.611781 31.5625 37.75 C31.55798828 36.94369141 31.55347656 36.13738281 31.54882812 35.30664062 C31.53700518 33.30856244 31.51906914 31.31052217 31.5 29.3125 C30.60692139 29.27491577 30.60692139 29.27491577 29.69580078 29.23657227 C27.00530864 29.12072506 24.3151766 28.99794804 21.625 28.875 C20.68785156 28.83568359 19.75070313 28.79636719 18.78515625 28.75585938 C17.88925781 28.71396484 16.99335937 28.67207031 16.0703125 28.62890625 C15.24289551 28.59224854 14.41547852 28.55559082 13.56298828 28.51782227 C11.5 28.3125 11.5 28.3125 9.5 27.3125 C9.005 16.9175 9.005 16.9175 8.5 6.3125 C2.56 6.3125 -3.38 6.3125 -9.5 6.3125 Z " fill="#76AF5A" transform="translate(92.5,241.6875)"/>
<path d="M0 0 C0.66 0 1.32 0 2 0 C2 1.66666667 2 3.33333333 2 5 C2.87852284 5.00358253 2.87852284 5.00358253 3.77479362 5.00723743 C18.01252604 5.06632175 32.25009165 5.1418293 46.48763847 5.23571491 C53.37276557 5.28071913 60.25784041 5.32012292 67.14306641 5.34643555 C73.7826596 5.37182508 80.42203902 5.41269828 87.06149673 5.46318626 C89.59970348 5.47992337 92.13795038 5.49139481 94.67620468 5.49761391 C98.22042125 5.5071807 101.76403546 5.53515082 105.30810547 5.56762695 C106.36689911 5.56619186 107.42569275 5.56475677 108.51657104 5.5632782 C109.95951538 5.58208542 109.95951538 5.58208542 111.43161011 5.60127258 C112.27044172 5.60588155 113.10927334 5.61049051 113.97352409 5.61523914 C114.64226114 5.74221023 115.31099819 5.86918131 116 6 C116.99 7.485 116.99 7.485 118 9 C117.01 8.67 116.02 8.34 115 8 C113.48734723 7.89680905 111.97066595 7.84793015 110.45457458 7.8326416 C109.05648811 7.81540543 109.05648811 7.81540543 107.63015747 7.79782104 C106.60937103 7.79041901 105.58858459 7.78301697 104.53686523 7.77539062 C103.46009018 7.76400055 102.38331512 7.75261047 101.27391052 7.74087524 C90.00677988 7.63021485 78.73899513 7.58279167 67.47143555 7.54003906 C62.12767138 7.51911331 56.78464727 7.47601454 51.44116211 7.41699219 C44.98612675 7.34583302 38.53174908 7.30919581 32.07634163 7.29692078 C29.61999576 7.28653204 27.16366929 7.26413644 24.70754814 7.22932434 C21.26055646 7.1829996 17.81613169 7.18113298 14.36889648 7.18945312 C13.36227966 7.16585724 12.35566284 7.14226135 11.31854248 7.11795044 C4.47343796 7.19754763 0.58740351 8.99954343 -4.77273464 13.24089813 C-20.47681549 25.64403539 -43.88271909 27.10963795 -63 26 C-67.76167211 25.40454775 -72.38865638 24.32202343 -77 23 C-77 22.67 -77 22.34 -77 22 C-75.35 22 -73.7 22 -72 22 C-71.67 20.35 -71.34 18.7 -71 17 C-72.98 17 -74.96 17 -77 17 C-77 16.01 -77 15.02 -77 14 C-76.02740234 14.32484375 -76.02740234 14.32484375 -75.03515625 14.65625 C-52.66981521 21.00436257 -29.74991681 17.31429849 -9.69140625 6.16015625 C-4.56024171 3.47685639 -4.56024171 3.47685639 0 0 Z " fill="#73AF5A" transform="translate(147,346)"/>
<path d="M0 0 C0.33 0 0.66 0 1 0 C1.33 3.63 1.66 7.26 2 11 C2.66 11 3.32 11 4 11 C4.33 12.32 4.66 13.64 5 15 C5.55985596 15.01981934 6.11971191 15.03963867 6.6965332 15.06005859 C9.23565854 15.15537783 11.77396888 15.26502753 14.3125 15.375 C15.63411133 15.42140625 15.63411133 15.42140625 16.98242188 15.46875 C17.82998047 15.50742187 18.67753906 15.54609375 19.55078125 15.5859375 C20.33106689 15.6173584 21.11135254 15.6487793 21.9152832 15.68115234 C24 16 24 16 27 18 C27.35644531 20.49023438 27.35644531 20.49023438 27.328125 23.59375 C27.32296875 24.70621094 27.3178125 25.81867188 27.3125 26.96484375 C27.291875 28.13144531 27.27125 29.29804688 27.25 30.5 C27.24484375 31.66660156 27.2396875 32.83320313 27.234375 34.03515625 C27.15412854 42.69174292 27.15412854 42.69174292 26 45 C16.1 45.495 16.1 45.495 6 46 C4.73398965 52.66765453 3.66426498 59.2466394 3 66 C-0.46222615 67.06723961 -3.64039266 67.10173486 -7.25 67.0625 C-8.32765625 67.05347656 -9.4053125 67.04445313 -10.515625 67.03515625 C-11.74539062 67.01775391 -11.74539062 67.01775391 -13 67 C-13.33 65.68 -13.66 64.36 -14 63 C-8.06 62.505 -8.06 62.505 -2 62 C-1.90912109 59.86917969 -1.90912109 59.86917969 -1.81640625 57.6953125 C-1.73200709 55.83853091 -1.64735877 53.98176064 -1.5625 52.125 C-1.50352539 50.71927734 -1.50352539 50.71927734 -1.44335938 49.28515625 C-1.40146484 48.38925781 -1.35957031 47.49335938 -1.31640625 46.5703125 C-1.26141968 45.32918701 -1.26141968 45.32918701 -1.20532227 44.06298828 C-1 42 -1 42 0 40 C10.395 39.505 10.395 39.505 21 39 C21.33 33.39 21.66 27.78 22 22 C20.57945313 22.01160156 19.15890625 22.02320313 17.6953125 22.03515625 C15.83854298 22.04453387 13.98177204 22.0536341 12.125 22.0625 C11.18785156 22.07087891 10.25070313 22.07925781 9.28515625 22.08789062 C7.94130859 22.09272461 7.94130859 22.09272461 6.5703125 22.09765625 C5.32918701 22.10551147 5.32918701 22.10551147 4.06298828 22.11352539 C2 22 2 22 0 21 C0 14.07 0 7.14 0 0 Z " fill="#76AE5D" transform="translate(102,249)"/>
<path d="M0 0 C25.08 0 50.16 0 76 0 C76 2.31 76 4.62 76 7 C50.92 7 25.84 7 0 7 C0 4.69 0 2.38 0 0 Z " fill="#73B05A" transform="translate(167,83)"/>
<path d="M0 0 C25.08 0 50.16 0 76 0 C76 2.31 76 4.62 76 7 C50.92 7 25.84 7 0 7 C0 4.69 0 2.38 0 0 Z " fill="#72AE57" transform="translate(167,68)"/>
<path d="M0 0 C1.65 0 3.3 0 5 0 C5 1.65 5 3.3 5 5 C5.94875 5.268125 6.8975 5.53625 7.875 5.8125 C11 7 11 7 13 10 C13 11.32 13 12.64 13 14 C9.28400809 14.20086443 8.22791555 14.1519437 5 12 C2.66800612 11.92094936 0.33167378 11.91201231 -2 12 C-1.13285895 15.88587584 -0.65160798 17.575159 2.75 19.79296875 C3.8225 20.25316406 4.895 20.71335937 6 21.1875 C11.81694915 23.72542373 11.81694915 23.72542373 14 27 C14.7871925 33.97227645 14.7871925 33.97227645 11.75 37.9375 C9.31954439 39.76034171 7.96714383 40.67031735 5 41 C5 42.65 5 44.3 5 46 C3.35 46 1.7 46 0 46 C0 44.35 0 42.7 0 41 C-0.721875 40.938125 -1.44375 40.87625 -2.1875 40.8125 C-5.93950492 39.72858747 -7.59876799 38.03685225 -10 35 C-9.8125 32.6875 -9.8125 32.6875 -9 31 C-6.75 30.75 -6.75 30.75 -4 31 C-3.360625 31.680625 -2.72125 32.36125 -2.0625 33.0625 C-1.381875 33.701875 -0.70125 34.34125 0 35 C3.19954954 34.85650653 3.19954954 34.85650653 6 34 C6.33 32.02 6.66 30.04 7 28 C6.33613281 27.82984375 5.67226562 27.6596875 4.98828125 27.484375 C-0.14269378 26.07616579 -4.13937572 24.86062428 -8 21 C-9.61082802 17.77834396 -9.6006214 14.48360411 -9 11 C-6.75771217 8.07256866 -5.17813739 6.41394017 -1.6875 5.1875 C-1.130625 5.125625 -0.57375 5.06375 0 5 C0 3.35 0 1.7 0 0 Z " fill="#6EAD53" transform="translate(198,14)"/>
<path d="M0 0 C4.88062876 1.63875126 8.16687462 4.75031193 11 9 C12.7034608 14.1103824 12.97227202 19.96095547 11.31640625 25.13671875 C8.57656154 30.37766652 4.4996235 33.16679217 -1 35 C-7.11671856 35.84451736 -11.15408089 34.89727941 -16.2734375 31.484375 C-20.55583768 27.80267349 -21.89309618 24.10918966 -22.83203125 18.66015625 C-23.10955584 14.26494119 -22.21763269 10.79751481 -20 7 C-13.97640175 0.39347288 -8.81827935 -0.87695596 0 0 Z M-15 9 C-17.57704988 13.142305 -17.82970867 17.25176622 -17 22 C-15.28631391 25.07061968 -13.19098548 27.40450726 -10 29 C-5.90842645 29.51512617 -1.76410454 29.94367269 1.95703125 27.953125 C4.73016737 25.65904646 6.72863863 23.68656243 7.30859375 20.08203125 C7.56093742 15.6392533 7.28130166 12.62757238 4.5625 9 C1.44062683 5.84131229 -1.34868969 4.89012471 -5.75 4.7265625 C-9.66709031 5.20259778 -11.84693009 6.61911048 -15 9 Z " fill="#6DAB51" transform="translate(325,291)"/>
<path d="M0 0 C4.22996052 4.01798072 5.21263862 7.29785665 5.5 13.0625 C5.35197286 18.9226333 3.76756251 22.6118378 -0.41796875 26.69140625 C-4.76087167 30.17964177 -8.33270659 31.09952709 -13.875 31.1875 C-19.06911142 30.04479549 -23.95601105 27.85276243 -27.140625 23.4296875 C-29.87006817 18.52822265 -30.50312467 14.75088995 -29.875 9.1875 C-27.69165175 3.32693365 -24.02801193 -0.37715872 -18.875 -3.8125 C-11.59727146 -5.52490672 -5.83599384 -4.69785396 0 0 Z M-22.625 5.9375 C-24.37973579 9.09602442 -24.7506402 11.58106581 -24.875 15.1875 C-23.48066933 18.81275975 -21.94730872 21.7552556 -18.875 24.1875 C-14.34051342 25.69899553 -10.49758684 25.96191645 -6.125 23.875 C-5.3825 23.318125 -4.64 22.76125 -3.875 22.1875 C-3.2975 21.795625 -2.72 21.40375 -2.125 21 C-0.04369379 17.98210599 0.22320078 14.75546151 0.125 11.1875 C-1.07852565 6.8689668 -1.94357055 4.84373438 -5.625 2.25 C-12.59695927 -0.02929438 -17.43299753 0.74549753 -22.625 5.9375 Z " fill="#74AE58" transform="translate(360.875,257.8125)"/>
<path d="M0 0 C4.43270731 2.13719817 7.44101899 4.79595977 10 9 C11.9873346 15.02346776 12.678065 20.06168197 10 26 C6.15933215 30.44708909 2.34185328 34.22255983 -3.625 35 C-9.68211104 35.43009072 -14.15202101 33.55636415 -19 30 C-22.68351592 26.33547128 -23.25161526 22.51146482 -23.4375 17.4375 C-23.21555385 12.2038665 -22.40447745 8.35318193 -18.53515625 4.56640625 C-12.55707285 -0.59316206 -7.71965903 -0.72750713 0 0 Z M-15 8 C-17.86667766 11.45978338 -18.54304397 14.50539982 -18.34765625 19.0078125 C-17.5379781 23.64754123 -14.96937844 26.27860209 -11.3125 29 C-6.72243189 30.38568094 -3.3828632 29.88527571 1 28 C4.00956086 25.48179602 5.65540375 23.71990447 6.4375 19.81640625 C6.65865547 15.71811895 6.14261531 13.29051268 4.3125 9.5625 C0.88064853 5.75963757 -1.46314255 5.13721941 -6.5 4.6875 C-10.31688865 5.02829363 -12.03573142 5.61211697 -15 8 Z " fill="#6CAB4F" transform="translate(290,266)"/>
<path d="M0 0 C0.6505687 -0.00335861 1.30113739 -0.00671722 1.97142029 -0.01017761 C4.12614846 -0.01969209 6.28079899 -0.02163083 8.43554688 -0.02270508 C9.93005404 -0.02591684 11.42456089 -0.02928085 12.91906738 -0.03279114 C16.05298594 -0.03878331 19.1868769 -0.0406309 22.32080078 -0.04003906 C26.3427774 -0.03993733 30.36457793 -0.05360095 34.38651276 -0.07081127 C37.47309182 -0.08191089 40.559628 -0.08395892 43.64622498 -0.08342934 C45.12943632 -0.0846121 46.61264868 -0.08905037 48.09584045 -0.0967617 C50.1668851 -0.10652263 52.23754333 -0.10369953 54.30859375 -0.09765625 C55.48836792 -0.09908127 56.66814209 -0.10050629 57.88366699 -0.10197449 C60.65429688 0.14526367 60.65429688 0.14526367 62.65429688 2.14526367 C62.11858259 5.68097796 62.11858259 5.68097796 60.65429688 7.14526367 C58.57897948 7.24996448 56.50006515 7.28382621 54.42211914 7.29052734 C53.77169647 7.29388596 53.1212738 7.29724457 52.45114136 7.30070496 C50.2909761 7.31024036 48.13088814 7.31215936 45.97070312 7.31323242 C44.47476672 7.31644325 42.97883063 7.31980718 41.4828949 7.32331848 C38.343 7.32931626 35.20313265 7.33115772 32.06323242 7.33056641 C28.03338006 7.33046476 24.00370377 7.34411699 19.97389317 7.36133862 C16.8830229 7.37243971 13.79219546 7.3744862 10.7013073 7.37395668 C9.21530488 7.37513966 7.72930145 7.37957913 6.24331856 7.38728905 C4.16737552 7.39705093 2.09181795 7.39422625 0.01586914 7.38818359 C-1.75831642 7.39032112 -1.75831642 7.39032112 -3.56834412 7.39250183 C-6.34570312 7.14526367 -6.34570312 7.14526367 -8.34570312 5.14526367 C-8.34570312 3.82526367 -8.34570312 2.50526367 -8.34570312 1.14526367 C-5.52308369 -0.26604605 -3.15667301 0.01019907 0 0 Z " fill="#70AD52" transform="translate(170.345703125,246.854736328125)"/>
<path d="M0 0 C0.65042267 -0.00335861 1.30084534 -0.00671722 1.97097778 -0.01017761 C4.13114304 -0.01971301 6.291231 -0.02163202 8.45141602 -0.02270508 C9.94735242 -0.0259159 11.44328851 -0.02927984 12.93922424 -0.03279114 C16.07911914 -0.03878892 19.21898649 -0.04063038 22.35888672 -0.04003906 C26.38873909 -0.03993741 30.41841537 -0.05358965 34.44822598 -0.07081127 C37.53909624 -0.08191236 40.62992368 -0.08395886 43.72081184 -0.08342934 C45.20681426 -0.08461231 46.69281769 -0.08905179 48.17880058 -0.0967617 C50.25474362 -0.10652359 52.33030119 -0.10369891 54.40625 -0.09765625 C55.58904037 -0.09908127 56.77183075 -0.10050629 57.99046326 -0.10197449 C60.76782227 0.14526367 60.76782227 0.14526367 62.76782227 2.14526367 C62.23210798 5.68097796 62.23210798 5.68097796 60.76782227 7.14526367 C58.69250487 7.24996448 56.61359054 7.28382621 54.53564453 7.29052734 C53.88522186 7.29388596 53.23479919 7.29724457 52.56466675 7.30070496 C50.40450149 7.31024036 48.24441353 7.31215936 46.08422852 7.31323242 C44.58829211 7.31644325 43.09235602 7.31980718 41.59642029 7.32331848 C38.45652539 7.32931626 35.31665804 7.33115772 32.17675781 7.33056641 C28.14690545 7.33046476 24.11722916 7.34411699 20.08741856 7.36133862 C16.99654829 7.37243971 13.90572085 7.3744862 10.81483269 7.37395668 C9.32883027 7.37513966 7.84282684 7.37957913 6.35684395 7.38728905 C4.28090091 7.39705093 2.20534334 7.39422625 0.12939453 7.38818359 C-1.64479103 7.39032112 -1.64479103 7.39032112 -3.45481873 7.39250183 C-6.23217773 7.14526367 -6.23217773 7.14526367 -8.23217773 5.14526367 C-7.37353859 -0.52175465 -5.3702358 0.0173184 0 0 Z " fill="#72AE52" transform="translate(170.232177734375,262.854736328125)"/>
<path d="M0 0 C25.08 0 50.16 0 76 0 C76 1.98 76 3.96 76 6 C50.92 6 25.84 6 0 6 C0 4.02 0 2.04 0 0 Z " fill="#6CAB52" transform="translate(167,99)"/>
<path d="M0 0 C0.33 1.98 0.66 3.96 1 6 C-3.14955131 9.721423 -7.40066973 11.6979379 -12.5 13.75 C-13.24636719 14.06582031 -13.99273437 14.38164062 -14.76171875 14.70703125 C-21.86389336 17.6107522 -21.86389336 17.6107522 -26 17 C-27.9375 15.3125 -27.9375 15.3125 -29 13 C-28.20059517 9.97368171 -27.56801383 8.41017046 -25.00390625 6.55859375 C-22.34733181 5.33869476 -19.69396624 4.13565562 -17 3 C-16.04480469 2.59136719 -15.08960938 2.18273437 -14.10546875 1.76171875 C-5.3341714 -1.73000154 -5.3341714 -1.73000154 0 0 Z " fill="#6EAE56" transform="translate(188,288)"/>
<path d="M0 0 C1.9375 1.6875 1.9375 1.6875 3 4 C2.18327771 7.43681124 1.4265198 8.71521601 -1.5390625 10.6953125 C-2.55742187 11.16710937 -3.57578125 11.63890625 -4.625 12.125 C-5.70136719 12.62386719 -6.77773437 13.12273437 -7.88671875 13.63671875 C-9.42779297 14.31154297 -9.42779297 14.31154297 -11 15 C-11.79019531 15.35707031 -12.58039063 15.71414063 -13.39453125 16.08203125 C-16.3401967 17.31549346 -18.667922 18.01443817 -21.875 17.875 C-24 17 -24 17 -26 14 C-25.90234375 11.47265625 -25.90234375 11.47265625 -25 9 C-23.06640625 7.55859375 -23.06640625 7.55859375 -20.5625 6.4375 C-19.66273438 6.03015625 -18.76296875 5.6228125 -17.8359375 5.203125 C-16.90007812 4.80609375 -15.96421875 4.4090625 -15 4 C-14.10539063 3.60296875 -13.21078125 3.2059375 -12.2890625 2.796875 C-8.03410727 0.98244964 -4.70245459 -0.42606132 0 0 Z " fill="#6EB156" transform="translate(229,287)"/>
<path d="M0 0 C1.58748047 -0.02416992 1.58748047 -0.02416992 3.20703125 -0.04882812 C4.22152344 -0.04947266 5.23601562 -0.05011719 6.28125 -0.05078125 C7.21001953 -0.05376221 8.13878906 -0.05674316 9.09570312 -0.05981445 C11.5 0.3125 11.5 0.3125 13.30786133 1.55712891 C14.82079827 3.78486116 14.84689632 5.08331625 14.79296875 7.76171875 C14.78330078 8.60927734 14.77363281 9.45683594 14.76367188 10.33007812 C14.73853516 11.21115234 14.71339844 12.09222656 14.6875 13 C14.66719727 14.33901367 14.66719727 14.33901367 14.64648438 15.70507812 C14.61114079 17.90816166 14.56180493 20.11002582 14.5 22.3125 C13.18 20.9925 11.86 19.6725 10.5 18.3125 C10.17 21.2825 9.84 24.2525 9.5 27.3125 C9.17 27.3125 8.84 27.3125 8.5 27.3125 C8.5 20.3825 8.5 13.4525 8.5 6.3125 C2.56 6.3125 -3.38 6.3125 -9.5 6.3125 C-9.5 13.2425 -9.5 20.1725 -9.5 27.3125 C-9.83 27.3125 -10.16 27.3125 -10.5 27.3125 C-10.83 21.7025 -11.16 16.0925 -11.5 10.3125 C-13.52350324 13.34775486 -13.82124018 14.50676202 -14.125 18 C-14.19976562 18.80824219 -14.27453125 19.61648438 -14.3515625 20.44921875 C-14.40054688 21.06410156 -14.44953125 21.67898438 -14.5 22.3125 C-14.83 22.3125 -15.16 22.3125 -15.5 22.3125 C-15.71083827 8.25661516 -15.71083827 8.25661516 -14.5 2.3125 C-9.92734569 -0.73593621 -5.37785396 -0.01637593 0 0 Z " fill="#7EB266" transform="translate(92.5,241.6875)"/>
<path d="M0 0 C0 1.66666667 0 3.33333333 0 5 C0.87852284 5.00358253 0.87852284 5.00358253 1.77479362 5.00723743 C16.01252604 5.06632175 30.25009165 5.1418293 44.48763847 5.23571491 C51.37276557 5.28071913 58.25784041 5.32012292 65.14306641 5.34643555 C71.7826596 5.37182508 78.42203902 5.41269828 85.06149673 5.46318626 C87.59970348 5.47992337 90.13795038 5.49139481 92.67620468 5.49761391 C96.22042125 5.5071807 99.76403546 5.53515082 103.30810547 5.56762695 C104.89629593 5.56547432 104.89629593 5.56547432 106.51657104 5.5632782 C107.95951538 5.58208542 107.95951538 5.58208542 109.43161011 5.60127258 C110.27044172 5.60588155 111.10927334 5.61049051 111.97352409 5.61523914 C112.64226114 5.74221023 113.31099819 5.86918131 114 6 C114.99 7.485 114.99 7.485 116 9 C115.01 8.67 114.02 8.34 113 8 C111.48734723 7.89680905 109.97066595 7.84793015 108.45457458 7.8326416 C107.05648811 7.81540543 107.05648811 7.81540543 105.63015747 7.79782104 C104.60937103 7.79041901 103.58858459 7.78301697 102.53686523 7.77539062 C101.46009018 7.76400055 100.38331512 7.75261047 99.27391052 7.74087524 C88.00677988 7.63021485 76.73899513 7.58279167 65.47143555 7.54003906 C60.12767138 7.51911331 54.78464727 7.47601454 49.44116211 7.41699219 C42.98612675 7.34583302 36.53174908 7.30919581 30.07634163 7.29692078 C27.61999576 7.28653204 25.16366929 7.26413644 22.70754814 7.22932434 C19.26055646 7.1829996 15.81613169 7.18113298 12.36889648 7.18945312 C11.36227966 7.16585724 10.35566284 7.14226135 9.31854248 7.11795044 C2.38305838 7.19859859 -1.50620526 9.08160329 -6.91921902 13.39958954 C-9 15 -9 15 -12 16 C-12 15.01 -12 14.02 -12 13 C-12.66 13 -13.32 13 -14 13 C-14.66 11.68 -15.32 10.36 -16 9 C-13.71180854 7.49445366 -11.41978831 5.99542957 -9.125 4.5 C-8.47402344 4.07074219 -7.82304687 3.64148438 -7.15234375 3.19921875 C-2.2265625 0 -2.2265625 0 0 0 Z " fill="#7EB06A" transform="translate(149,346)"/>
<path d="M0 0 C6.46701478 5.38917898 6.46701478 5.38917898 6.80078125 9.01953125 C6.71699219 9.75816406 6.63320313 10.49679688 6.546875 11.2578125 C3.31344135 12.33562372 2.61059557 12.46643621 -0.453125 11.2578125 C-2.92578125 9.26171875 -2.92578125 9.26171875 -5.515625 6.8203125 C-8.11437002 4.38569874 -10.48605039 2.23586224 -13.453125 0.2578125 C-13.453125 -0.7321875 -13.453125 -1.7221875 -13.453125 -2.7421875 C-8.38735707 -4.76849467 -4.17746775 -2.96680034 0 0 Z " fill="#65A94E" transform="translate(378.453125,208.7421875)"/>
<path d="M0 0 C0.33 0 0.66 0 1 0 C1 3.33333333 1 6.66666667 1 10 C1.99 9.34 2.98 8.68 4 8 C2.86709813 12.4057295 0.81662039 14.56900869 -2.88671875 16.9765625 C-6.87873573 18.90984983 -10.5966617 19.4624808 -15 19 C-24.10310142 15.79379715 -24.10310142 15.79379715 -26 12 C-24.68 12 -23.36 12 -22 12 C-21.67 11.01 -21.34 10.02 -21 9 C-19.9171875 9.7115625 -19.9171875 9.7115625 -18.8125 10.4375 C-15.95160484 12.0268862 -14.25622711 12.84494157 -11 13 C-6.52259527 11.53326397 -3.20924895 10.29576185 -1 6 C-0.27954633 2.84881675 -0.27954633 2.84881675 0 0 Z " fill="#71AE52" transform="translate(296,282)"/>
<path d="M0 0 C8.70115581 -0.0462833 17.40226942 -0.08184872 26.10352135 -0.10362434 C30.14360264 -0.11407407 34.18359989 -0.1282548 38.22363281 -0.15087891 C42.12044733 -0.17256512 46.01718087 -0.18455967 49.91405106 -0.18975449 C51.40285136 -0.19345786 52.8916471 -0.20068938 54.38041306 -0.21146011 C56.46122667 -0.22591919 58.54170306 -0.22798033 60.62255859 -0.22705078 C61.80836517 -0.231492 62.99417175 -0.23593323 64.21591187 -0.24050903 C67 0 67 0 69 2 C68.46428571 5.53571429 68.46428571 5.53571429 67 7 C65.15881971 7.09381302 63.31402359 7.11743954 61.47045898 7.11352539 C60.28931015 7.11344986 59.10816132 7.11337433 57.89122009 7.11329651 C56.6058284 7.10813522 55.32043671 7.10297394 53.99609375 7.09765625 C52.68794205 7.0962413 51.37979034 7.09482635 50.03199768 7.09336853 C46.54837141 7.0895441 43.06478661 7.07971446 39.58117676 7.06866455 C36.02873292 7.05844882 32.47628241 7.05387056 28.92382812 7.04882812 C21.94920168 7.03809212 14.97460283 7.0210166 8 7 C8 6.67 8 6.34 8 6 C27.14 6 46.28 6 66 6 C66 4.68 66 3.36 66 2 C33.33 1.505 33.33 1.505 0 1 C0 0.67 0 0.34 0 0 Z " fill="#7FAA65" transform="translate(164,263)"/>
<path d="M0 0 C1.75091019 0.08754551 3.50079551 0.19573373 5.25 0.3125 C6.22453125 0.37050781 7.1990625 0.42851562 8.203125 0.48828125 C11.29097507 1.05323706 12.61841722 2.02903494 15 4 C17.64934822 4.71433121 17.64934822 4.71433121 20 5 C19.67 6.65 19.34 8.3 19 10 C11.11049093 10.64668107 5.95794893 8.64154337 -1 5 C-0.67 3.35 -0.34 1.7 0 0 Z " fill="#6BA950" transform="translate(56,358)"/>
<path d="M0 0 C0.99 0.99 1.98 1.98 3 3 C1.63859873 7.45549507 -0.30756614 9.25434405 -4 12 C-4.33 12.66 -4.66 13.32 -5 14 C-7.32156597 14.40729228 -9.6568787 14.74438677 -12 15 C-12.69140625 12.76171875 -12.69140625 12.76171875 -13 10 C-10.51554633 5.59465882 -7.16785747 2.50961053 -2.5625 0.5 C-1.716875 0.335 -0.87125 0.17 0 0 Z " fill="#67A94E" transform="translate(38,208)"/>
<path d="M0 0 C2.29679188 1.09442433 4.58704964 2.19986661 6.875 3.3125 C7.52597656 3.62123047 8.17695313 3.92996094 8.84765625 4.24804688 C12.19676398 5.88807385 13.89005879 6.83508818 16 10 C16.57772436 15.11698718 16.57772436 15.11698718 16 18 C13.5 21 13.5 21 11 23 C10.67 22.01 10.34 21.02 10 20 C11.4375 17.8125 11.4375 17.8125 13 16 C13.66 16.33 14.32 16.66 15 17 C14.34 15.02 13.68 13.04 13 11 C11.02 11.99 11.02 11.99 9 13 C9 12.34 9 11.68 9 11 C8.31292969 10.81824219 7.62585938 10.63648438 6.91796875 10.44921875 C6.01691406 10.19785156 5.11585938 9.94648437 4.1875 9.6875 C3.29417969 9.44386719 2.40085938 9.20023438 1.48046875 8.94921875 C-1.05247738 7.9799181 -2.2716496 7.04990396 -4 5 C-2.68 4.67 -1.36 4.34 0 4 C0 2.68 0 1.36 0 0 Z " fill="#7AB060" transform="translate(196,31)"/>
<path d="M0 0 C4.46618872 1.81955837 7.91736638 4.68436697 9.984375 9.10546875 C10.71387469 11.04965423 11.36347472 13.0234215 12 15 C9.3125 15.8125 9.3125 15.8125 6 16 C3.375 13.8125 3.375 13.8125 1 11 C0.21625 10.34 -0.5675 9.68 -1.375 9 C-3 7 -3 7 -2.875 4.375 C-2 2 -2 2 0 0 Z " fill="#65A44D" transform="translate(28,333)"/>
<path d="M0 0 C0.33 0 0.66 0 1 0 C1 5.94 1 11.88 1 18 C8.26 18 15.52 18 23 18 C24.17426264 20.34852528 24.11508173 21.73774065 24.09765625 24.3515625 C24.09443359 25.20234375 24.09121094 26.053125 24.08789062 26.9296875 C24.07951172 27.81914062 24.07113281 28.70859375 24.0625 29.625 C24.05798828 30.5221875 24.05347656 31.419375 24.04882812 32.34375 C24.03702591 34.56256648 24.02056155 36.78125018 24 39 C23.67 39 23.34 39 23 39 C22.505 29.595 22.505 29.595 22 20 C15.73 20 9.46 20 3 20 C3.66 20.99 4.32 21.98 5 23 C-1.0546875 23.1953125 -1.0546875 23.1953125 -3 23 C-5 21 -5 21 -5.1953125 17.0859375 C-5.18200376 15.51550649 -5.15813602 13.94513779 -5.125 12.375 C-5.11597656 11.57320313 -5.10695312 10.77140625 -5.09765625 9.9453125 C-5.07406223 7.96341477 -5.03819065 5.98167019 -5 4 C-4.67 4 -4.34 4 -4 4 C-3.67 8.62 -3.34 13.24 -3 18 C-2.67 17.34 -2.34 16.68 -2 16 C-1.34 16 -0.68 16 0 16 C0 10.72 0 5.44 0 0 Z " fill="#84B46B" transform="translate(59,271)"/>
<path d="M0 0 C0 6.93 0 13.86 0 21 C-4.95 21 -9.9 21 -15 21 C-14.01 20.67 -13.02 20.34 -12 20 C-12 19.34 -12 18.68 -12 18 C-10.88625 17.79375 -9.7725 17.5875 -8.625 17.375 C-6.57843795 16.68928139 -6.57843795 16.68928139 -5 15 C-4.06179568 11.33445755 -3.68352108 7.82446254 -3.38671875 4.0546875 C-3.25910156 3.04664063 -3.13148437 2.03859375 -3 1 C-1 0 -1 0 0 0 Z " fill="#6DA950" transform="translate(82,249)"/>
<path d="M0 0 C0.33 0 0.66 0 1 0 C1.12022642 5.77086794 0.91696124 11.29446341 0 17 C-1 18 -1 18 -3.50024414 18.11352539 C-4.58426514 18.10828857 -5.66828613 18.10305176 -6.78515625 18.09765625 C-7.95498047 18.09443359 -9.12480469 18.09121094 -10.33007812 18.08789062 C-11.56177734 18.07951172 -12.79347656 18.07113281 -14.0625 18.0625 C-15.91584961 18.05573242 -15.91584961 18.05573242 -17.80664062 18.04882812 C-20.87114117 18.03699608 -23.93554721 18.02051173 -27 18 C-27.33 16.68 -27.66 15.36 -28 14 C-27.01 13.34 -26.02 12.68 -25 12 C-25 12.66 -25 13.32 -25 14 C-24.34 14 -23.68 14 -23 14 C-23 13.34 -23 12.68 -23 12 C-17.39 12 -11.78 12 -6 12 C-6 12.33 -6 12.66 -6 13 C-9.96 13 -13.92 13 -18 13 C-17.67 13.99 -17.34 14.98 -17 16 C-11.72 16 -6.44 16 -1 16 C-1.020625 14.659375 -1.04125 13.31875 -1.0625 11.9375 C-1.06896884 7.84919311 -0.68530907 4.02619081 0 0 Z " fill="#7BB065" transform="translate(106,299)"/>
<path d="M0 0 C-0.66 1.98 -1.32 3.96 -2 6 C-5.96 6.66 -9.92 7.32 -14 8 C-14 7.34 -14 6.68 -14 6 C-14.66 6 -15.32 6 -16 6 C-16 4.68 -16 3.36 -16 2 C-5.05660377 -2.52830189 -5.05660377 -2.52830189 0 0 Z " fill="#68AB51" transform="translate(353,360)"/>
<path d="M0 0 C0.33 0 0.66 0 1 0 C1.33 3.63 1.66 7.26 2 11 C2.66 11 3.32 11 4 11 C4.33 12.98 4.66 14.96 5 17 C9.95 17 14.9 17 20 17 C18.02 17.99 18.02 17.99 16 19 C15.38640625 19.36867188 14.7728125 19.73734375 14.140625 20.1171875 C9.75221084 21.92700794 4.65131558 21.10111556 0 21 C0 14.07 0 7.14 0 0 Z " fill="#6AAA51" transform="translate(102,249)"/>
<path d="M0 0 C0 0.99 0 1.98 0 3 C-1.22976563 3.02126953 -1.22976563 3.02126953 -2.484375 3.04296875 C-8.94998267 3.19516778 -8.94998267 3.19516778 -14.625 5.875 C-16.63215905 10.43672512 -17.34521072 15.08046475 -18 20 C-18.66 20 -19.32 20 -20 20 C-20.80625242 13.98510102 -20.35071338 9.69749857 -17.0625 4.5 C-13.8534186 0.35167526 -11.2557275 -1.26904631 -6.11328125 -2.109375 C-3.63917642 -1.98132521 -2.11960701 -1.24401315 0 0 Z " fill="#66A74A" transform="translate(353,255)"/>
<path d="M0 0 C1.32 0.33 2.64 0.66 4 1 C4.22134176 3.12368444 4.42670007 5.24904024 4.625 7.375 C4.74101562 8.55835938 4.85703125 9.74171875 4.9765625 10.9609375 C4.98429688 11.96382812 4.99203125 12.96671875 5 14 C4.34 14.66 3.68 15.32 3 16 C-1.875 14.25 -1.875 14.25 -3 12 C-3.46601942 4.77669903 -3.46601942 4.77669903 -1.5 1.5 C-1.005 1.005 -0.51 0.51 0 0 Z " fill="#6AAB4F" transform="translate(192,21)"/>
<path d="M0 0 C0.66 0 1.32 0 2 0 C2 8.25 2 16.5 2 25 C-0.31 25 -2.62 25 -5 25 C-4.34 24.34 -3.68 23.68 -3 23 C-2.67 23 -2.34 23 -2 23 C-2.02320312 21.75863281 -2.04640625 20.51726562 -2.0703125 19.23828125 C-2.08907731 17.5963602 -2.10727675 15.95443262 -2.125 14.3125 C-2.15013672 13.08756836 -2.15013672 13.08756836 -2.17578125 11.83789062 C-2.2114802 7.42907071 -2.07580814 4.01268424 0 0 Z " fill="#6BAD50" transform="translate(126,268)"/>
<path d="M0 0 C1.67542976 0.28604898 3.34385343 0.61781233 5 1 C5.6875 3.3125 5.6875 3.3125 6 6 C4.75 7.8125 4.75 7.8125 3 9 C2.01 9 1.02 9 0 9 C0 9.66 0 10.32 0 11 C-3.28976808 12.09658936 -4.71303767 11.79953138 -8 11 C-8.33 11.99 -8.66 12.98 -9 14 C-9.33 13.34 -9.66 12.68 -10 12 C-8.52149287 10.18696196 -7.04217625 8.37458402 -5.5625 6.5625 C-4.32693359 5.04849609 -4.32693359 5.04849609 -3.06640625 3.50390625 C-1 1 -1 1 0 0 Z " fill="#63AB51" transform="translate(382,333)"/>
<path d="M0 0 C0 0.33 0 0.66 0 1 C-1.65 1 -3.3 1 -5 1 C-4.67 2.32 -4.34 3.64 -4 5 C1.28 5 6.56 5 12 5 C12 5.33 12 5.66 12 6 C6.72 6 1.44 6 -4 6 C-4 12.93 -4 19.86 -4 27 C-4.33 27 -4.66 27 -5 27 C-5.33 21.39 -5.66 15.78 -6 10 C-8.02350324 13.03525486 -8.32124018 14.19426202 -8.625 17.6875 C-8.69976562 18.49574219 -8.77453125 19.30398438 -8.8515625 20.13671875 C-8.90054688 20.75160156 -8.94953125 21.36648438 -9 22 C-9.33 22 -9.66 22 -10 22 C-10.21083827 7.94411516 -10.21083827 7.94411516 -9 2 C-5.5647952 -0.29013653 -4.014669 -0.17842973 0 0 Z " fill="#85B66D" transform="translate(87,242)"/>
<path d="M0 0 C2.25195063 1.26747489 4.50155747 2.53882868 6.75 3.8125 C7.38421875 4.16892578 8.0184375 4.52535156 8.671875 4.89257812 C11.94804537 6.75248735 15.04985101 8.63839084 18 11 C17.01 11.66 16.02 12.32 15 13 C13.66209359 13.99387334 12.32781878 14.9926892 11 16 C7.535 14.02 7.535 14.02 4 12 C4.33 10.02 4.66 8.04 5 6 C4.175 5.38125 3.35 4.7625 2.5 4.125 C1.675 3.42375 0.85 2.7225 0 2 C0 1.34 0 0.68 0 0 Z " fill="#70AD5B" transform="translate(264,346)"/>
<path d="M0 0 C2.97 0 5.94 0 9 0 C8.4740625 1.1446875 8.4740625 1.1446875 7.9375 2.3125 C6.67639116 5.04759379 6.67639116 5.04759379 8 8 C0.74 8 -6.52 8 -14 8 C-14 7.67 -14 7.34 -14 7 C-13.07316406 6.87882813 -12.14632812 6.75765625 -11.19140625 6.6328125 C-9.99386719 6.46523437 -8.79632813 6.29765625 -7.5625 6.125 C-5.77005859 5.88136719 -5.77005859 5.88136719 -3.94140625 5.6328125 C-2.97074219 5.42398438 -2.00007812 5.21515625 -1 5 C-0.67 4.34 -0.34 3.68 0 3 C-0.66 2.67 -1.32 2.34 -2 2 C-1.34 2 -0.68 2 0 2 C0 1.34 0 0.68 0 0 Z " fill="#7BB164" transform="translate(208,169)"/>
<path d="M0 0 C0.66 0.99 1.32 1.98 2 3 C2.99 2.34 3.98 1.68 5 1 C4.875 2.75 4.875 2.75 4 5 C-0.55832822 8.46829321 -3.9820121 10.14518823 -9.6875 10.0625 C-10.89986328 10.04896484 -10.89986328 10.04896484 -12.13671875 10.03515625 C-13.05904297 10.01775391 -13.05904297 10.01775391 -14 10 C-14 9.67 -14 9.34 -14 9 C-12.02 9 -10.04 9 -8 9 C-8.7763932 5.9254644 -8.7763932 5.9254644 -11 4 C-10.37351562 3.87882812 -9.74703125 3.75765625 -9.1015625 3.6328125 C-8.28429687 3.46523438 -7.46703125 3.29765625 -6.625 3.125 C-5.81289063 2.96257812 -5.00078125 2.80015625 -4.1640625 2.6328125 C-1.81326077 2.13341068 -1.81326077 2.13341068 0 0 Z " fill="#78B562" transform="translate(329,316)"/>
<path d="M0 0 C0.33 0 0.66 0 1 0 C1 3.33333333 1 6.66666667 1 10 C1.99 9.34 2.98 8.68 4 8 C2.63842622 13.29500913 -0.60343955 15.23745533 -5 18 C-5.33 17.34 -5.66 16.68 -6 16 C-8.35599235 15.53248212 -8.35599235 15.53248212 -11.0625 15.375 C-11.98160156 15.30023438 -12.90070313 15.22546875 -13.84765625 15.1484375 C-14.55792969 15.09945313 -15.26820313 15.05046875 -16 15 C-16 14.34 -16 13.68 -16 13 C-14.783125 12.896875 -13.56625 12.79375 -12.3125 12.6875 C-8.57476849 12.21780277 -6.04214629 11.32634716 -3 9 C-0.87491756 5.81237635 -0.4979837 3.73487777 0 0 Z " fill="#7AB05E" transform="translate(296,282)"/>
<path d="M0 0 C1.98 0.99 1.98 0.99 4 2 C4 7.28 4 12.56 4 18 C3.34 18 2.68 18 2 18 C1.34 19.32 0.68 20.64 0 22 C0 14.74 0 7.48 0 0 Z " fill="#6DAC51" transform="translate(55,269)"/>
<path d="M0 0 C6.75 2.625 6.75 2.625 9 6 C7.66666667 7.33333333 6.33333333 8.66666667 5 10 C4.59394531 9.52304687 4.18789063 9.04609375 3.76953125 8.5546875 C0.68246584 5.84243135 -3.01197005 5.87069527 -7 6 C-10.40744551 7.30102465 -12.43672978 8.43672978 -15 11 C-14.67 9.68 -14.34 8.36 -14 7 C-13.34 7 -12.68 7 -12 7 C-12 6.34 -12 5.68 -12 5 C-9.23547967 3.61773984 -6.9538637 3.90474613 -3.875 3.9375 C-2.77929688 3.94652344 -1.68359375 3.95554687 -0.5546875 3.96484375 C0.28835938 3.97644531 1.13140625 3.98804688 2 4 C2 3.34 2 2.68 2 2 C1.34 2 0.68 2 0 2 C0 1.34 0 0.68 0 0 Z " fill="#77AE5A" transform="translate(324,291)"/>
<path d="M0 0 C2.25 -0.25 2.25 -0.25 5 0 C7.1875 1.875 7.1875 1.875 9 4 C9.66 4.66 10.32 5.32 11 6 C9.68 6.33 8.36 6.66 7 7 C7.99 7.99 8.98 8.98 10 10 C6.04877078 9.72433285 4.21957438 9.17285643 1.0625 6.6875 C-1 4 -1 4 -0.8125 1.6875 C-0.4103125 0.8521875 -0.4103125 0.8521875 0 0 Z " fill="#77B161" transform="translate(189,45)"/>
<path d="M0 0 C2.62531524 0.16713569 2.62531524 0.16713569 5 0 C5.33 0.99 5.66 1.98 6 3 C0.06 3 -5.88 3 -12 3 C-12.33 1.68 -12.66 0.36 -13 -1 C-11.39773045 -1.22245393 -9.79303233 -1.42746669 -8.1875 -1.625 C-7.29417969 -1.74101562 -6.40085937 -1.85703125 -5.48046875 -1.9765625 C-3 -2 -3 -2 0 0 Z " fill="#70B351" transform="translate(95,244)"/>
<path d="M0 0 C5.75 1.625 5.75 1.625 8 5 C8 6.32 8 7.64 8 9 C3.24792529 9.43200679 0.21789302 7.98489083 -4 6 C-3.525625 5.566875 -3.05125 5.13375 -2.5625 4.6875 C-0.76313043 2.97690387 -0.76313043 2.97690387 0 0 Z " fill="#7BB05E" transform="translate(203,19)"/>
<path d="M0 0 C0.99 0 1.98 0 3 0 C3.09579384 8.07861415 3.12513633 15.98340366 2 24 C1.67 24 1.34 24 1 24 C0.855625 22.865625 0.71125 21.73125 0.5625 20.5625 C0.38828522 17.19222799 0.38828522 17.19222799 -1 16 C-0.909084 13.29891496 -0.76259234 10.63069689 -0.5625 7.9375 C-0.51029297 7.17888672 -0.45808594 6.42027344 -0.40429688 5.63867188 C-0.27424165 3.75878278 -0.13771962 1.87934315 0 0 Z " fill="#6AA850" transform="translate(103,291)"/>
<path d="M0 0 C0.33 0 0.66 0 1 0 C0.98839844 1.02738281 0.97679687 2.05476563 0.96484375 3.11328125 C0.04273462 17.18039181 0.04273462 17.18039181 4 30 C2 30 0 30 -2 30 C-1.85908107 26.68727224 -1.71134606 23.37488029 -1.5625 20.0625 C-1.50352539 18.67321289 -1.50352539 18.67321289 -1.44335938 17.25585938 C-1.17920879 11.46486581 -0.70235691 5.75460497 0 0 Z " fill="#85B56B" transform="translate(50,267)"/>
<path d="M0 0 C0.66 0 1.32 0 2 0 C2 0.66 2 1.32 2 2 C2.66 2 3.32 2 4 2 C4.02698189 3.62490954 4.04638757 5.24994633 4.0625 6.875 C4.07410156 7.77992188 4.08570313 8.68484375 4.09765625 9.6171875 C4 12 4 12 3 14 C0.9375 14.625 0.9375 14.625 -1 15 C-1.02693575 12.87506859 -1.04636628 10.75004088 -1.0625 8.625 C-1.07410156 7.44164062 -1.08570313 6.25828125 -1.09765625 5.0390625 C-1 2 -1 2 0 0 Z " fill="#6CA94E" transform="translate(362,264)"/>
<path d="M0 0 C0.66 0 1.32 0 2 0 C2.33 2.97 2.66 5.94 3 9 C3.99 8.34 4.98 7.68 6 7 C5.67 9.64 5.34 12.28 5 15 C4.01 15.33 3.02 15.66 2 16 C1.34 16.66 0.68 17.32 0 18 C-1.125 13.25 -1.125 13.25 0 11 C0.07033769 9.12620395 0.0843022 7.24998898 0.0625 5.375 C0.05347656 4.37210937 0.04445313 3.36921875 0.03515625 2.3359375 C0.02355469 1.56507813 0.01195312 0.79421875 0 0 Z " fill="#6FAC58" transform="translate(331,302)"/>
<path d="M0 0 C0.556875 0.7425 1.11375 1.485 1.6875 2.25 C4.72919198 5.86714722 8.08360369 8.38906913 12 11 C11.21625 10.95875 10.4325 10.9175 9.625 10.875 C6.83883881 10.71271266 6.83883881 10.71271266 5 13 C2 11 -1 9 -4 7 C-2.35 6.34 -0.7 5.68 1 5 C0.67 3.35 0.34 1.7 0 0 Z " fill="#74AF5A" transform="translate(329,280)"/>
<path d="M0 0 C0.66 0.33 1.32 0.66 2 1 C1.01 2.485 1.01 2.485 0 4 C1.32 4.33 2.64 4.66 4 5 C3.21625 5.226875 2.4325 5.45375 1.625 5.6875 C-1.21875 6.78125 -1.21875 6.78125 -2.3125 9.625 C-2.539375 10.40875 -2.76625 11.1925 -3 12 C-3.33 11.01 -3.66 10.02 -4 9 C-4.99 9 -5.98 9 -7 9 C-6.82374165 6.62051228 -6.30280227 5.29774151 -4.59765625 3.62109375 C-3.09350908 2.37884514 -1.54870149 1.18623944 0 0 Z " fill="#77B05B" transform="translate(276,267)"/>
<path d="M0 0 C-2.5935714 2.5935714 -5.61730858 3.91428055 -8.875 5.5 C-9.50019531 5.80808594 -10.12539063 6.11617187 -10.76953125 6.43359375 C-12.51168509 7.29177947 -14.25578177 8.14601787 -16 9 C-17.33418476 9.66496109 -18.66800804 10.33065731 -20 11 C-19.67 10.01 -19.34 9.02 -19 8 C-18.34 8 -17.68 8 -17 8 C-17 6.68 -17 5.36 -17 4 C-15.35 4.33 -13.7 4.66 -12 5 C-12 4.34 -12 3.68 -12 3 C-4.71428571 -0.42857143 -4.71428571 -0.42857143 0 0 Z " fill="#7FB166" transform="translate(63,200)"/>
<path d="M0 0 C0.33 0 0.66 0 1 0 C1.95458649 8.35263176 2.11039334 16.59784035 2 25 C-1.88125202 17.5845998 -2.14993855 8.06226955 0 0 Z " fill="#80B068" transform="translate(41,270)"/>
<path d="M0 0 C2.5625 0.375 2.5625 0.375 4.5 2.0625 C5.5625 4.375 5.5625 4.375 5 7 C3.42045028 9.60969084 2.38236541 10.34104935 -0.4375 11.375 C0.11978913 8.03126525 0.91423889 5.34187001 2.5625 2.375 C0.2525 2.375 -2.0575 2.375 -4.4375 2.375 C-2.4375 0.375 -2.4375 0.375 0 0 Z " fill="#77AF62" transform="translate(226.4375,286.625)"/>
<path d="M0 0 C0.33 0.66 0.66 1.32 1 2 C-0.2739589 4.03833424 -1.61061923 6.03852126 -3 8 C-3.66 8 -4.32 8 -5 8 C-5.8441938 11.97977076 -6.44687265 15.97007218 -7 20 C-7.66 20 -8.32 20 -9 20 C-8.26868398 11.51673414 -5.59398177 6.34992526 0 0 Z " fill="#74A960" transform="translate(122,93)"/>
<path d="M0 0 C5.41538462 -0.36923077 5.41538462 -0.36923077 8.375 1.5 C8.91125 1.995 9.4475 2.49 10 3 C9.67 3.66 9.34 4.32 9 5 C6.36 5 3.72 5 1 5 C0.67 3.35 0.34 1.7 0 0 Z " fill="#6BAF51" transform="translate(312,320)"/>
<path d="M0 0 C0 0.33 0 0.66 0 1 C-6.27 1 -12.54 1 -19 1 C-19 0.67 -19 0.34 -19 0 C-16.58492672 -0.39049692 -14.16933288 -0.76277086 -11.75 -1.125 C-10.72712891 -1.29322266 -10.72712891 -1.29322266 -9.68359375 -1.46484375 C-5.83030254 -2.02600266 -3.2719175 -2.27684981 0 0 Z " fill="#77AC5E" transform="translate(98,238)"/>
<path d="M0 0 C1.0625 1.8125 1.0625 1.8125 2 4 C1.67 4.99 1.34 5.98 1 7 C-1.38564077 6.42415568 -3.66682784 5.77772405 -6 5 C-4.87312259 1.61936778 -3.78825335 0 0 0 Z " fill="#60A744" transform="translate(133,132)"/>
<path d="M0 0 C0.33 0.66 0.66 1.32 1 2 C0.33333333 3.66666667 -0.33333333 5.33333333 -1 7 C-1.3813074 9.32597511 -1.72460254 11.65912158 -2 14 C-2.33 14 -2.66 14 -3 14 C-3.33 11.69 -3.66 9.38 -4 7 C-5.32 6.67 -6.64 6.34 -8 6 C-7.05125 5.38125 -6.1025 4.7625 -5.125 4.125 C-2.05554891 2.18029031 -2.05554891 2.18029031 0 0 Z " fill="#71AC56" transform="translate(301,296)"/>
<path d="M0 0 C0.2475 0.556875 0.495 1.11375 0.75 1.6875 C1.98256472 4.16076749 1.98256472 4.16076749 4.1875 6.5625 C4.785625 7.366875 5.38375 8.17125 6 9 C5.67 9.99 5.34 10.98 5 12 C5.99 12.33 6.98 12.66 8 13 C7.01 14.485 7.01 14.485 6 16 C4.80274117 13.71296692 3.61702982 11.42115138 2.4375 9.125 C2.09525391 8.47402344 1.75300781 7.82304687 1.40039062 7.15234375 C0.53917109 5.46470143 -0.23686703 3.73420407 -1 2 C-0.67 1.34 -0.34 0.68 0 0 Z " fill="#79AD61" transform="translate(44,295)"/>
<path d="M0 0 C3.96 0 7.92 0 12 0 C11.01 0.33 10.02 0.66 9 1 C9 1.66 9 2.32 9 3 C8.02246356 4.02196992 7.0194119 5.01979625 6 6 C5.01 7.485 5.01 7.485 4 9 C4 6.69 4 4.38 4 2 C2.68 1.34 1.36 0.68 0 0 Z " fill="#80AE6A" transform="translate(102,289)"/>
<path d="M0 0 C0 1.32 0 2.64 0 4 C-0.99 4 -1.98 4 -3 4 C-3 3.34 -3 2.68 -3 2 C-4.65 1.67 -6.3 1.34 -8 1 C-8 0.34 -8 -0.32 -8 -1 C-4.59745511 -2.2151946 -3.06748874 -1.86240388 0 0 Z " fill="#5EAA44" transform="translate(373,207)"/>
<path d="M0 0 C0 0.99 0 1.98 0 3 C-2.25 4.5 -2.25 4.5 -5 6 C-5.70125 6.5775 -6.4025 7.155 -7.125 7.75 C-8.053125 8.36875 -8.053125 8.36875 -9 9 C-9.99 8.67 -10.98 8.34 -12 8 C-8.2064129 4.78119883 -4.34170523 2.3836813 0 0 Z " fill="#77AD62" transform="translate(53,196)"/>
<path d="M0 0 C1.65 0.99 3.3 1.98 5 3 C3.515 5.475 3.515 5.475 2 8 C-1.465 6.02 -1.465 6.02 -5 4 C-4.0409375 3.8453125 -4.0409375 3.8453125 -3.0625 3.6875 C-2.381875 3.460625 -1.70125 3.23375 -1 3 C-0.67 2.01 -0.34 1.02 0 0 Z " fill="#7DB162" transform="translate(328,293)"/>
<path d="M0 0 C0.33 0 0.66 0 1 0 C1.02578125 0.96421875 1.0515625 1.9284375 1.078125 2.921875 C1.13484375 4.18515625 1.1915625 5.4484375 1.25 6.75 C1.29640625 8.00296875 1.3428125 9.2559375 1.390625 10.546875 C2.07150347 14.40518636 2.98126522 15.60916205 6 18 C4.35 17.67 2.7 17.34 1 17 C-1.20927172 11.02197063 -0.93213141 6.26039609 0 0 Z " fill="#78B262" transform="translate(73,303)"/>
<path d="M0 0 C1.75098126 2.62647188 3.38731308 5.28775382 5 8 C4.34 8.66 3.68 9.32 3 10 C2.67 10.66 2.34 11.32 2 12 C1.01 11.34 0.02 10.68 -1 10 C-1 9.34 -1 8.68 -1 8 C-0.34 8 0.32 8 1 8 C0.67 5.36 0.34 2.72 0 0 Z " fill="#7CB261" transform="translate(336,273)"/>
<path d="M0 0 C-0.90492188 0.47179687 -0.90492188 0.47179687 -1.828125 0.953125 C-6.09354641 3.23718937 -9.81502796 5.26111977 -13 9 C-12.45503269 5.18522884 -10.88938827 3.47661852 -8 1 C-4.86648655 -1.0563682 -3.52305954 -1.02021932 0 0 Z " fill="#74B05B" transform="translate(343,251)"/>
<path d="M0 0 C-0.4640625 0.7734375 -0.4640625 0.7734375 -0.9375 1.5625 C-2.18828017 4.1293925 -2.18828017 4.1293925 -2.5 7.6875 C-2.665 8.780625 -2.83 9.87375 -3 11 C-3.99 11.495 -3.99 11.495 -5 12 C-5.36666667 4.66666667 -5.36666667 4.66666667 -3.625 1.5 C-2 0 -2 0 0 0 Z " fill="#75A75E" transform="translate(194,21)"/>
<path d="M0 0 C2.31 0 4.62 0 7 0 C4.19195732 2.96404505 1.81684226 5.44499019 -2 7 C-1.67 6.21625 -1.34 5.4325 -1 4.625 C0.11866511 2.15667503 0.11866511 2.15667503 0 0 Z " fill="#7BB263" transform="translate(358,330)"/>
<path d="M0 0 C3.63 0.66 7.26 1.32 11 2 C11 2.66 11 3.32 11 4 C7.7 4 4.4 4 1 4 C0.67 2.68 0.34 1.36 0 0 Z " fill="#6BAE4C" transform="translate(341,283)"/>
<path d="M0 0 C1.32 0.66 2.64 1.32 4 2 C3.236875 2.37125 2.47375 2.7425 1.6875 3.125 C-1.52043115 5.3630915 -2.4977816 7.44211433 -4 11 C-4.33 11 -4.66 11 -5 11 C-4.50769231 4.6 -4.50769231 4.6 -1.9375 1.5625 C-0.9784375 0.7890625 -0.9784375 0.7890625 0 0 Z " fill="#7CB064" transform="translate(341,258)"/>
<path d="M0 0 C-5.75 3.875 -5.75 3.875 -8 5 C-10.125 4.0625 -10.125 4.0625 -12 3 C-10.3789897 2.30314502 -8.75303934 1.61777139 -7.125 0.9375 C-6.22007812 0.55464844 -5.31515625 0.17179687 -4.3828125 -0.22265625 C-2 -1 -2 -1 0 0 Z " fill="#78B162" transform="translate(181,289)"/>
<path d="M0 0 C0 3 0 3 -2 7 C-4.97 6.67 -7.94 6.34 -11 6 C-11 5.67 -11 5.34 -11 5 C-10.37351562 4.80664062 -9.74703125 4.61328125 -9.1015625 4.4140625 C-8.28429687 4.15367187 -7.46703125 3.89328125 -6.625 3.625 C-5.81289063 3.36976563 -5.00078125 3.11453125 -4.1640625 2.8515625 C-1.83540815 2.10145717 -1.83540815 2.10145717 0 0 Z " fill="#81B468" transform="translate(358,278)"/>
<path d="M0 0 C0.33 0 0.66 0 1 0 C1.34615998 5.65394631 0.43425238 9.03006806 -2 14 C-3.25127906 10.45332822 -2.72285053 8.27746562 -1.5625 4.75 C-1.27503906 3.85796875 -0.98757812 2.9659375 -0.69140625 2.046875 C-0.46324219 1.37140625 -0.23507813 0.6959375 0 0 Z " fill="#7AAF61" transform="translate(252,254)"/>
<path d="M0 0 C0.66 0.99 1.32 1.98 2 3 C0.625 4.5 0.625 4.5 -1 6 C-1.66 6 -2.32 6 -3 6 C-3 6.66 -3 7.32 -3 8 C-3.99 7.67 -4.98 7.34 -6 7 C-4.02 4.69 -2.04 2.38 0 0 Z " fill="#78B05D" transform="translate(266,232)"/>
<path d="M0 0 C0.33 1.32 0.66 2.64 1 4 C1.99 3.67 2.98 3.34 4 3 C5.32 4.32 6.64 5.64 8 7 C5.36 7 2.72 7 0 7 C0 4.69 0 2.38 0 0 Z " fill="#639D4A" transform="translate(147,117)"/>
<path d="M0 0 C3.465 1.485 3.465 1.485 7 3 C6.67 3.66 6.34 4.32 6 5 C5.01 5 4.02 5 3 5 C3 4.34 3 3.68 3 3 C2.01 3.33 1.02 3.66 0 4 C0 2.68 0 1.36 0 0 Z M1 5 C1.66 5.33 2.32 5.66 3 6 C2.34 6.66 1.68 7.32 1 8 C0.34 7.34 -0.32 6.68 -1 6 C-0.34 5.67 0.32 5.34 1 5 Z " fill="#84B668" transform="translate(202,34)"/>
<path d="M0 0 C1.32 1.65 2.64 3.3 4 5 C2.68 4.67 1.36 4.34 0 4 C0 2.68 0 1.36 0 0 Z M-3 4 C-2.34 4.33 -1.68 4.66 -1 5 C-1 6.65 -1 8.3 -1 10 C-2.32 8.35 -3.64 6.7 -5 5 C-4.34 4.67 -3.68 4.34 -3 4 Z " fill="#70AE5A" transform="translate(385,216)"/>
<path d="M0 0 C0 3.39593478 -0.52165948 4.06619881 -2.5 6.6875 C-2.9640625 7.31011719 -3.428125 7.93273437 -3.90625 8.57421875 C-4.2671875 9.04472656 -4.628125 9.51523438 -5 10 C-5.66 9.34 -6.32 8.68 -7 8 C-4.69 5.36 -2.38 2.72 0 0 Z " fill="#74A95E" transform="translate(32,210)"/>
<path d="M0 0 C0.66 0.99 1.32 1.98 2 3 C2.66 3 3.32 3 4 3 C4 3.66 4 4.32 4 5 C2.35 5.33 0.7 5.66 -1 6 C-1.66 4.68 -2.32 3.36 -3 2 C-2.01 1.34 -1.02 0.68 0 0 Z " fill="#76B156" transform="translate(201,34)"/>
<path d="M0 0 C0.33 0 0.66 0 1 0 C1.66 3.3 2.32 6.6 3 10 C1.02 10.99 1.02 10.99 -1 12 C-0.67 8.04 -0.34 4.08 0 0 Z " fill="#7EB767" transform="translate(307,306)"/>
<path d="M0 0 C3.63 0 7.26 0 11 0 C11 0.33 11 0.66 11 1 C8.36 1.33 5.72 1.66 3 2 C2.67 2.99 2.34 3.98 2 5 C1.34 5 0.68 5 0 5 C0 3.35 0 1.7 0 0 Z " fill="#6EAA58" transform="translate(167,84)"/>
<path d="M0 0 C3.3 1.98 6.6 3.96 10 6 C8.68 6.33 7.36 6.66 6 7 C2.75 4.6875 2.75 4.6875 0 2 C0 1.34 0 0.68 0 0 Z " fill="#7CB065" transform="translate(264,346)"/>
<path d="M0 0 C0.99 0.33 1.98 0.66 3 1 C1.02 3.31 -0.96 5.62 -3 8 C-3.66 7.34 -4.32 6.68 -5 6 C-4.360625 5.7525 -3.72125 5.505 -3.0625 5.25 C-0.81258459 4.18437567 -0.81258459 4.18437567 -0.25 1.875 C-0.1675 1.25625 -0.085 0.6375 0 0 Z " fill="#7DAF65" transform="translate(369,322)"/>
<path d="M0 0 C1.98 0.99 3.96 1.98 6 3 C5.01 3.99 4.02 4.98 3 6 C1.68 5.34 0.36 4.68 -1 4 C-0.67 2.68 -0.34 1.36 0 0 Z " fill="#77B15B" transform="translate(274,291)"/>
<path d="M0 0 C0.99 0 1.98 0 3 0 C3 1.32 3 2.64 3 4 C3.99 4.66 4.98 5.32 6 6 C4.02 6 2.04 6 0 6 C0 4.02 0 2.04 0 0 Z " fill="#67A051" transform="translate(167,99)"/>
<path d="M0 0 C1.65 0 3.3 0 5 0 C0.25 4.875 0.25 4.875 -2 6 C-2.33 4.68 -2.66 3.36 -3 2 C-2.01 2 -1.02 2 0 2 C0 1.34 0 0.68 0 0 Z " fill="#71AD5D" transform="translate(128,95)"/>
<path d="M0 0 C1 2 1 2 1 5 C0.37400383 6.68236471 -0.28752268 8.3523962 -1 10 C-1.33 10 -1.66 10 -2 10 C-2.1953125 3.9453125 -2.1953125 3.9453125 -2 2 C-1.34 1.34 -0.68 0.68 0 0 Z " fill="#63A546" transform="translate(372,264)"/>
<path d="M0 0 C0.99 0 1.98 0 3 0 C1.52307692 4.67692308 1.52307692 4.67692308 -1.125 6.3125 C-2.053125 6.6528125 -2.053125 6.6528125 -3 7 C-2.67 6.01 -2.34 5.02 -2 4 C-1.34 4 -0.68 4 0 4 C0 2.68 0 1.36 0 0 Z " fill="#76B05C" transform="translate(46,204)"/>
<path d="M0 0 C0.61875 0.78375 1.2375 1.5675 1.875 2.375 C3.89858661 4.96837647 3.89858661 4.96837647 6 7 C4.35 7.33 2.7 7.66 1 8 C0.67 5.36 0.34 2.72 0 0 Z " fill="#78B260" transform="translate(123,122)"/>
<path d="M0 0 C0.66 0 1.32 0 2 0 C2 1.65 2 3.3 2 5 C0.68 5 -0.64 5 -2 5 C-1.125 1.125 -1.125 1.125 0 0 Z " fill="#6AAF55" transform="translate(374,346)"/>
<path d="M0 0 C2.31 1.65 4.62 3.3 7 5 C4 6 4 6 1.8125 5.0625 C1.214375 4.711875 0.61625 4.36125 0 4 C0 2.68 0 1.36 0 0 Z " fill="#74AB60" transform="translate(38,342)"/>
<path d="M0 0 C-1 3 -1 3 -2.875 4.0625 C-3.57625 4.371875 -4.2775 4.68125 -5 5 C-5.99 5.66 -6.98 6.32 -8 7 C-6.13932792 2.84926997 -4.83061881 0 0 0 Z " fill="#5EA44B" transform="translate(383,336)"/>
<path d="M0 0 C1.32 1.32 2.64 2.64 4 4 C3.34 4 2.68 4 2 4 C1.67 4.99 1.34 5.98 1 7 C-0.0625 5.1875 -0.0625 5.1875 -1 3 C-0.67 2.01 -0.34 1.02 0 0 Z " fill="#74AF5A" transform="translate(259,22)"/>
</svg>
